PathFileType	4	(X/Y/Z)	C:\Users\WrightLab\Desktop\Jo\P5V18.trc
DataRate	CameraRate	NumFrames	NumMarkers	Units	OrigDataRate	OrigDataStartFrame	OrigNumFrames
100.00	100.00	       11	19	mm	100.00	447	       892
Frame#	Time	Headset_Front			Headset_Back			Headset_Left			Headset_Right			Left_Shoulder			Right_Shoulder			Sternum			C7			Left Elbow			Right Elbow			Left Wrist			Right Wrist			Left ASIS			Right ASIS			S2			Left Knee			Right Knee			Left Ankle			Right Ankle			
		X1	Y1	Z1	X2	Y2	Z2	X3	Y3	Z3	X4	Y4	Z4	X5	Y5	Z5	X6	Y6	Z6	X7	Y7	Z7	X8	Y8	Z8	X9	Y9	Z9	X10	Y10	Z10	X11	Y11	Z11	X12	Y12	Z12	X13	Y13	Z13	X14	Y14	Z14	X15	Y15	Z15	X16	Y16	Z16	X17	Y17	Z17	X18	Y18	Z18	X19	Y19	Z19	

447	4.460	-398.10388	1789.09619	726.34076										-564.30310	1523.56348	574.95972	-357.20551	1484.23840	931.03424	-370.06375	1351.43042	713.28430	-553.68433	1548.54175	814.79871	-682.53149	1306.75610	465.45456	-449.94022	1237.17896	1073.03809	-509.83096	1329.93762	337.29700	-322.78244	1026.94580	1033.51965	-436.89615	954.14221	593.41705	-344.20648	977.94427	860.83569	-661.18909	1005.54181	796.48590	-531.71082	516.14069	599.32379	-272.77020	564.92487	796.01501	-697.87598	113.58294	682.22650	-447.51199	176.49582	852.18610	
448	4.470	-391.39560	1787.98401	720.88409	-268.22192	1541.66431	565.25903							-558.68628	1523.48828	570.72260	-352.50912	1484.18457	924.18964	-364.48782	1351.03247	710.49860	-548.84863	1548.60120	810.24707	-676.57642	1309.01477	457.81192	-445.92300	1238.07410	1069.65820	-503.71054	1334.54065	329.38037	-319.38315	1027.14429	1029.89087	-431.44907	953.88318	590.37518	-339.14160	978.03284	857.30957	-655.72192	1005.04883	792.57227	-528.94562	515.27039	598.69653	-265.36606	565.98956	792.98071	-697.86389	113.91962	682.57294	-426.12418	169.21344	843.33624	
449	4.480	-386.88675	1788.28210	715.98126	-263.19818	1541.06458	560.19391							-552.92920	1523.37170	566.54321	-348.00870	1483.70715	917.63770	-359.25214	1351.43945	706.58636	-543.53186	1548.77905	805.93506	-671.01746	1312.28564	450.06061	-441.26907	1237.83643	1065.36292	-497.38394	1338.98730	321.79324	-315.12964	1026.75366	1026.21826	-426.31323	953.40863	586.00055	-333.77524	977.58667	853.89264	-650.82141	1005.16034	788.94147	-525.13135	515.04840	597.84827	-260.11401	566.39093	790.14252	-697.72388	114.06892	682.52448	-404.51791	161.98534	834.34991	
450	4.490	-380.12860	1787.17139	710.64685	-258.13498	1539.68713	556.13013							-547.25238	1523.23291	562.45667	-342.35394	1484.57788	915.32251	-353.58313	1351.19788	702.21356	-537.35736	1548.14905	801.49353	-665.12915	1316.00500	442.01950	-436.40720	1238.64392	1061.65210	-491.90591	1344.37830	314.13364	-310.62527	1026.83948	1021.85925	-420.36807	953.08453	583.25043	-328.72638	977.81146	850.62305	-645.64709	1005.40784	785.46204	-521.05621	514.01855	597.09845	-254.46086	566.61957	787.93378	-697.33081	114.33914	682.31451	-382.28891	155.15466	824.84125	
451	4.500	-375.87515	1787.15161	706.11511	-253.18694	1538.61560	550.05206							-541.14227	1523.34753	558.21649	-336.19440	1484.63062	911.28430	-348.19971	1350.58240	698.55499	-532.41486	1548.27576	797.50409	-660.18610	1320.56909	434.33701	-431.31516	1239.09595	1058.10193	-486.04269	1349.61389	306.62582	-305.31323	1026.80505	1019.22729	-414.91656	953.00153	579.77405	-323.48886	977.67816	847.14264	-639.00787	1004.48285	781.87830	-517.83423	513.97888	595.94409	-250.00015	565.93433	784.74060	-697.17682	114.56650	682.22565	-360.49802	149.53735	816.90979	
452	4.510	-368.72437	1786.41443	700.74091										-535.38324	1523.46423	554.31958	-331.27103	1483.95850	905.76270	-342.55338	1349.94287	694.77979	-526.27954	1548.34167	793.21411	-654.53699	1324.40723	426.23792	-425.29153	1239.22034	1054.86731	-480.75131	1355.09167	298.84317	-301.37091	1026.87415	1016.13226	-409.65570	952.63776	576.86578	-317.89423	977.68555	843.35297	-633.42621	1005.04980	778.94495	-513.42664	513.12915	595.34399	-245.36061	565.66760	782.91919	-696.91455	115.62602	682.19287	-337.63486	143.79872	807.94464	
453	4.520	-362.58685	1785.67078	695.72180										-529.60748	1523.59949	550.62512	-325.06110	1483.96179	902.13483	-336.74524	1349.88452	690.66296	-520.62390	1548.10767	789.48065	-649.45532	1328.94592	418.93307	-419.93958	1239.64441	1051.40662	-475.54596	1361.38428	291.16403	-296.39435	1026.37537	1012.12476	-403.83252	951.91064	574.01031	-312.60696	977.45056	839.45825	-627.19287	1004.44629	775.93658	-509.57364	512.63824	594.15082	-241.74638	563.63361	780.96381	-696.45227	116.08273	682.07617	-314.81528	138.35629	800.15515	
454	4.530	-357.60791	1785.23438	691.17688										-523.78711	1523.58264	546.95703	-318.74890	1484.88757	899.99872	-330.67963	1349.21143	687.55994	-514.03284	1547.89697	785.22992	-644.15411	1333.87183	411.49878	-413.25214	1239.66040	1048.21643	-470.39877	1367.85583	283.66132	-290.39386	1026.20154	1008.90601	-398.66830	951.49756	570.92377	-305.59302	977.40839	835.15875	-620.60516	1003.51233	773.03033	-504.73590	512.30096	592.92065	-238.43251	561.33899	778.51862	-696.14087	116.36612	681.96741	-292.49051	133.75774	791.75061	
455	4.540	-350.44376	1784.40503	685.87610										-517.93909	1524.01575	543.37970	-312.20724	1484.74451	896.15356	-324.72235	1349.15747	682.89960	-508.27304	1547.31726	781.66516	-639.35724	1338.45435	404.14249	-407.29471	1240.01453	1044.97766	-465.34064	1373.93884	275.93802	-284.95444	1025.94116	1004.97083	-392.92529	951.11365	568.06787	-299.37585	977.40674	831.44153	-614.77142	1003.48450	770.58630	-500.78632	511.36639	591.41473	-234.39114	559.72620	776.55804	-696.28888	117.58415	681.62134	-270.55884	130.47624	783.25616	
456	4.550	-343.96790	1783.36890	681.13184	-227.00591	1532.42444	528.20343							-511.98834	1523.99585	539.86206	-305.82565	1483.69653	890.80969	-317.69174	1349.01782	679.54968	-501.84412	1546.46362	777.96356	-633.87885	1343.79419	396.69400	-400.47348	1240.07947	1041.65515	-460.31683	1380.43665	268.36176	-278.35934	1026.11584	1002.03516	-387.38745	950.81421	565.12531	-293.03568	977.42212	827.50061	-608.00055	1003.26044	767.90613	-496.26581	510.18475	590.08789	-231.95238	556.39899	774.74554	-695.99463	118.04784	681.51227	-249.43930	128.55956	775.78113	
457	4.560	-339.02780	1782.78125	676.89209	-221.64772	1531.37952	523.46271							-506.34088	1524.22058	537.10858	-299.27545	1483.72534	885.57404	-311.95706	1348.68091	674.95593	-495.85107	1546.64832	774.45789	-629.25275	1349.07385	389.45435	-392.94104	1239.77380	1037.53601	-455.43033	1386.84033	260.51123	-272.08365	1025.44678	997.79541	-382.13318	950.18402	560.85468	-286.04492	976.51233	824.15680	-600.19434	1002.06183	765.05890	-492.54071	510.12036	588.63690	-229.60498	553.10779	773.20752	-695.30249	118.95924	681.45691	-228.63791	127.01530	768.96436	
